<svg width="45" height="43" viewBox="0 0 45 43" fill="none" xmlns="http://www.w3.org/2000/svg">
<path d="M5.375 42.1075C4.1318 42.1075 2.93951 41.6049 2.06044 40.7104C1.18136 39.8159 0.6875 38.6027 0.6875 37.3377V5.53948C0.6875 4.27447 1.18136 3.06127 2.06044 2.16677C2.93951 1.27227 4.1318 0.769745 5.375 0.769745H30.375C30.7894 0.769745 31.1868 0.937253 31.4799 1.23542C31.7729 1.53359 31.9375 1.93799 31.9375 2.35966C31.9375 2.78133 31.7729 3.18573 31.4799 3.48389C31.1868 3.78206 30.7894 3.94957 30.375 3.94957H5.375C4.9606 3.94957 4.56317 4.11708 4.27015 4.41524C3.97712 4.71341 3.8125 5.11781 3.8125 5.53948V37.3377C3.8125 37.7594 3.97712 38.1638 4.27015 38.462C4.56317 38.7601 4.9606 38.9276 5.375 38.9276H36.625C37.0394 38.9276 37.4368 38.7601 37.7299 38.462C38.0229 38.1638 38.1875 37.7594 38.1875 37.3377V21.4386C38.1875 21.0169 38.3521 20.6125 38.6451 20.3144C38.9382 20.0162 39.3356 19.8487 39.75 19.8487C40.1644 19.8487 40.5618 20.0162 40.8549 20.3144C41.1479 20.6125 41.3125 21.0169 41.3125 21.4386V37.3377C41.3125 38.6027 40.8186 39.8159 39.9396 40.7104C39.0605 41.6049 37.8682 42.1075 36.625 42.1075H5.375Z" fill="url(#paint0_linear_22_2)"/>
<path d="M22.1062 28.9239L43.9812 6.66512C44.1265 6.5173 44.2418 6.3418 44.3204 6.14866C44.399 5.95552 44.4395 5.74851 44.4395 5.53946C44.4395 5.33041 44.399 5.1234 44.3204 4.93026C44.2418 4.73712 44.1265 4.56163 43.9812 4.4138C43.836 4.26598 43.6635 4.14872 43.4737 4.06872C43.2839 3.98872 43.0804 3.94754 42.875 3.94754C42.6695 3.94754 42.4661 3.98872 42.2763 4.06872C42.0865 4.14872 41.914 4.26598 41.7687 4.4138L21 25.5501L12.7312 17.1331C12.586 16.9853 12.4135 16.868 12.2237 16.788C12.0339 16.708 11.8304 16.6668 11.625 16.6668C11.4195 16.6668 11.2161 16.708 11.0263 16.788C10.8365 16.868 10.664 16.9853 10.5187 17.1331C10.3735 17.2809 10.2582 17.4564 10.1796 17.6496C10.101 17.8427 10.0605 18.0497 10.0605 18.2588C10.0605 18.4678 10.101 18.6748 10.1796 18.868C10.2582 19.0611 10.3735 19.2366 10.5187 19.3844L19.8937 28.9239C20.0389 29.072 20.2113 29.1894 20.4011 29.2696C20.591 29.3497 20.7945 29.391 21 29.391C21.2055 29.391 21.409 29.3497 21.5988 29.2696C21.7887 29.1894 21.9611 29.072 22.1062 28.9239Z" fill="url(#paint1_linear_22_2)"/>
<defs>
<linearGradient id="paint0_linear_22_2" x1="0.6875" y1="21.4386" x2="41.3125" y2="21.4386" gradientUnits="userSpaceOnUse">
<stop stop-color="#E93C9E"/>
<stop offset="1" stop-color="#24A3EC"/>
</linearGradient>
<linearGradient id="paint1_linear_22_2" x1="10.0605" y1="16.6693" x2="44.4395" y2="16.6693" gradientUnits="userSpaceOnUse">
<stop stop-color="#E93C9E"/>
<stop offset="1" stop-color="#24A3EC"/>
</linearGradient>
</defs>
</svg>
