<svg width="43" height="33" viewBox="0 0 43 33" fill="none" xmlns="http://www.w3.org/2000/svg">
<path fill-rule="evenodd" clip-rule="evenodd" d="M2.25 0.8125C1.8356 0.8125 1.43817 0.97712 1.14515 1.27015C0.85212 1.56317 0.6875 1.9606 0.6875 2.375V5.5C0.6875 5.9144 0.85212 6.31183 1.14515 6.60485C1.43817 6.89788 1.8356 7.0625 2.25 7.0625H5.375C5.7894 7.0625 6.18683 6.89788 6.47985 6.60485C6.77288 6.31183 6.9375 5.9144 6.9375 5.5V2.375C6.9375 1.9606 6.77288 1.56317 6.47985 1.27015C6.18683 0.97712 5.7894 0.8125 5.375 0.8125H2.25ZM5.375 2.375H2.25V5.5H5.375V2.375Z" fill="url(#paint0_linear_22_3)"/>
<path d="M11.625 3.9375C11.625 3.5231 11.7896 3.12567 12.0826 2.83265C12.3757 2.53962 12.7731 2.375 13.1875 2.375H41.3125C41.7269 2.375 42.1243 2.53962 42.4174 2.83265C42.7104 3.12567 42.875 3.5231 42.875 3.9375C42.875 4.3519 42.7104 4.74933 42.4174 5.04235C42.1243 5.33538 41.7269 5.5 41.3125 5.5H13.1875C12.7731 5.5 12.3757 5.33538 12.0826 5.04235C11.7896 4.74933 11.625 4.3519 11.625 3.9375ZM13.1875 14.875C12.7731 14.875 12.3757 15.0396 12.0826 15.3326C11.7896 15.6257 11.625 16.0231 11.625 16.4375C11.625 16.8519 11.7896 17.2493 12.0826 17.5424C12.3757 17.8354 12.7731 18 13.1875 18H41.3125C41.7269 18 42.1243 17.8354 42.4174 17.5424C42.7104 17.2493 42.875 16.8519 42.875 16.4375C42.875 16.0231 42.7104 15.6257 42.4174 15.3326C42.1243 15.0396 41.7269 14.875 41.3125 14.875H13.1875ZM13.1875 27.375C12.7731 27.375 12.3757 27.5396 12.0826 27.8326C11.7896 28.1257 11.625 28.5231 11.625 28.9375C11.625 29.3519 11.7896 29.7493 12.0826 30.0424C12.3757 30.3354 12.7731 30.5 13.1875 30.5H41.3125C41.7269 30.5 42.1243 30.3354 42.4174 30.0424C42.7104 29.7493 42.875 29.3519 42.875 28.9375C42.875 28.5231 42.7104 28.1257 42.4174 27.8326C42.1243 27.5396 41.7269 27.375 41.3125 27.375H13.1875Z" fill="url(#paint1_linear_22_3)"/>
<path fill-rule="evenodd" clip-rule="evenodd" d="M0.6875 14.875C0.6875 14.4606 0.85212 14.0632 1.14515 13.7701C1.43817 13.4771 1.8356 13.3125 2.25 13.3125H5.375C5.7894 13.3125 6.18683 13.4771 6.47985 13.7701C6.77288 14.0632 6.9375 14.4606 6.9375 14.875V18C6.9375 18.4144 6.77288 18.8118 6.47985 19.1049C6.18683 19.3979 5.7894 19.5625 5.375 19.5625H2.25C1.8356 19.5625 1.43817 19.3979 1.14515 19.1049C0.85212 18.8118 0.6875 18.4144 0.6875 18V14.875ZM2.25 14.875H5.375V18H2.25V14.875ZM2.25 25.8125C1.8356 25.8125 1.43817 25.9771 1.14515 26.2701C0.85212 26.5632 0.6875 26.9606 0.6875 27.375V30.5C0.6875 30.9144 0.85212 31.3118 1.14515 31.6049C1.43817 31.8979 1.8356 32.0625 2.25 32.0625H5.375C5.7894 32.0625 6.18683 31.8979 6.47985 31.6049C6.77288 31.3118 6.9375 30.9144 6.9375 30.5V27.375C6.9375 26.9606 6.77288 26.5632 6.47985 26.2701C6.18683 25.9771 5.7894 25.8125 5.375 25.8125H2.25ZM5.375 27.375H2.25V30.5H5.375V27.375Z" fill="url(#paint2_linear_22_3)"/>
<defs>
<linearGradient id="paint0_linear_22_3" x1="0.6875" y1="3.9375" x2="6.9375" y2="3.9375" gradientUnits="userSpaceOnUse">
<stop stop-color="#E93C9E"/>
<stop offset="1" stop-color="#24A3EC"/>
</linearGradient>
<linearGradient id="paint1_linear_22_3" x1="11.625" y1="16.4375" x2="42.875" y2="16.4375" gradientUnits="userSpaceOnUse">
<stop stop-color="#E93C9E"/>
<stop offset="1" stop-color="#24A3EC"/>
</linearGradient>
<linearGradient id="paint2_linear_22_3" x1="0.6875" y1="22.6875" x2="6.9375" y2="22.6875" gradientUnits="userSpaceOnUse">
<stop stop-color="#E93C9E"/>
<stop offset="1" stop-color="#24A3EC"/>
</linearGradient>
</defs>
</svg>
