<svg width="41" height="42" viewBox="0 0 41 42" fill="none" xmlns="http://www.w3.org/2000/svg">
<path d="M5.125 0C3.76577 0 2.4622 0.553123 1.50108 1.53769C0.539954 2.52226 0 3.85761 0 5.25L0 36.75C0 38.1424 0.539954 39.4777 1.50108 40.4623C2.4622 41.4469 3.76577 42 5.125 42H35.875C37.2342 42 38.5378 41.4469 39.4989 40.4623C40.46 39.4777 41 38.1424 41 36.75V5.25C41 3.85761 40.46 2.52226 39.4989 1.53769C38.5378 0.553123 37.2342 0 35.875 0L5.125 0ZM21.7812 11.8125V19.6875H29.4688C29.8086 19.6875 30.1345 19.8258 30.3747 20.0719C30.615 20.3181 30.75 20.6519 30.75 21C30.75 21.3481 30.615 21.6819 30.3747 21.9281C30.1345 22.1742 29.8086 22.3125 29.4688 22.3125H21.7812V30.1875C21.7812 30.5356 21.6463 30.8694 21.406 31.1156C21.1657 31.3617 20.8398 31.5 20.5 31.5C20.1602 31.5 19.8343 31.3617 19.594 31.1156C19.3537 30.8694 19.2188 30.5356 19.2188 30.1875V22.3125H11.5312C11.1914 22.3125 10.8656 22.1742 10.6253 21.9281C10.385 21.6819 10.25 21.3481 10.25 21C10.25 20.6519 10.385 20.3181 10.6253 20.0719C10.8656 19.8258 11.1914 19.6875 11.5312 19.6875H19.2188V11.8125C19.2188 11.4644 19.3537 11.1306 19.594 10.8844C19.8343 10.6383 20.1602 10.5 20.5 10.5C20.8398 10.5 21.1657 10.6383 21.406 10.8844C21.6463 11.1306 21.7812 11.4644 21.7812 11.8125Z" fill="url(#paint0_linear_9_83)"/>
<defs>
<linearGradient id="paint0_linear_9_83" x1="0" y1="21" x2="41" y2="21" gradientUnits="userSpaceOnUse">
<stop stop-color="#E93C9E"/>
<stop offset="1" stop-color="#24A3EC"/>
</linearGradient>
</defs>
</svg>
